# xmcd
#
# Track frame offsets: 
#        150
#        14014
#        29322
#        44003
#        59503
#        73286
#        87064
#        100066
#        113489
#        127098
#        140494
#        155118
#        169415
#        184697
#        197640
#        213277
#        229223
#        241151
#        255516
#
# Disc length: 3602 seconds
#
# Revision: 0
# Processed by: cddbd v1.5.1PL2 Copyright (c) Steve Scherf et al.
# Submitted via: ExactAudioCopy v0.95a5
#
DISCID=150e1013
DTITLE=Bessie Smith - Essential Bessie Smith - CD2
DYEAR=1994
DGENRE=Blues
TTITLE0=Alexander's Ragtime Band
TTITLE1=There'll Be A Hot Time In The City Tonight
TTITLE2=Trombone Cholly
TTITLE3=Send Me To The 'Lectric Chair
TTITLE4=A Good Man Is Hard To Find
TTITLE5=Dyin' By The Hour
TTITLE6=Me And My Gin
TTITLE7=Kitchen Man
TTITLE8=Nobody Knows You When You're Down And Out
TTITLE9=On Revival Day
TTITLE10=Moan, You Moaners
TTITLE11=Black Mountain Blues
TTITLE12=Shipwreck Blues
TTITLE13=Need A Little Sugar In My Bowl
TTITLE14=Do Your Duty
TTITLE15=Gimme A Pigfoot And A Bottle Of Beer
TTITLE16=Take Me For A Buggy Ride
TTITLE17=Down In The Dumps
TTITLE18=Hot Dog Man
EXTD=
EXTT0=
EXTT1=
EXTT2=
EXTT3=
EXTT4=
EXTT5=
EXTT6=
EXTT7=
EXTT8=
EXTT9=
EXTT10=
EXTT11=
EXTT12=
EXTT13=
EXTT14=
EXTT15=
EXTT16=
EXTT17=
EXTT18=
PLAYORDER=
